<svg width="28" height="32" viewBox="0 0 28 32" fill="none" xmlns="http://www.w3.org/2000/svg">
<path d="M15.0491 19.2179C15.6445 18.991 16.1452 18.5685 16.4689 18.0196L16.5495 17.883C18.2369 15.0217 22.6219 16.2184 22.6219 19.5402V21.2584C22.6219 23.133 21.1022 24.6527 19.2275 24.6527H16.0492C12.9298 24.6527 12.134 20.3284 15.0491 19.2179V19.2179Z" fill="#141718"/>
<path d="M10.1691 15.5907C10.1287 16.2266 10.3057 16.8574 10.6711 17.3794L10.7621 17.5094C12.6666 20.231 9.7601 23.7256 6.7371 22.3488L5.17344 21.6367C3.46741 20.8597 2.71426 18.8468 3.49123 17.1408L4.80854 14.2483C6.10146 11.4094 10.3667 12.4775 10.1691 15.5907V15.5907Z" fill="#141718"/>
<path d="M15.3662 13.8258C14.8716 13.4241 14.2551 13.2025 13.6179 13.1973L13.4592 13.196C10.1376 13.1692 8.97635 8.77468 11.8511 7.11047L13.3381 6.24966C14.9605 5.31046 17.0371 5.86429 17.9763 7.48668L19.5686 10.2373C21.1315 12.9371 17.7878 15.7923 15.3662 13.8258V13.8258Z" fill="#141718"/>
</svg>
