<svg width="23" height="23" viewBox="0 0 23 23" fill="none" xmlns="http://www.w3.org/2000/svg">
<path fill-rule="evenodd" clip-rule="evenodd" d="M17.7199 14.1802C14.6174 14.1802 14.6174 14.4149 14.6174 17.2828V17.311C14.6174 18.5599 14.6174 19.4625 14.9231 19.8438C15.2221 20.2139 16.11 20.3853 17.7199 20.3853C19.3299 20.3853 20.2178 20.2127 20.5167 19.8427C20.8225 19.4625 20.8225 18.5599 20.8225 17.3099C20.8225 14.4149 20.8225 14.1802 17.7199 14.1802ZM17.7199 22.0778C15.8178 22.0778 14.3906 21.8781 13.6065 20.9044C12.925 20.0594 12.925 18.9064 12.925 17.3111L13.7712 17.2829H12.925C12.925 14.045 13.1293 12.488 17.7199 12.488C22.3106 12.488 22.5148 14.045 22.5148 17.2829C22.5148 18.9053 22.5148 20.0594 21.8334 20.9044C21.0493 21.8781 19.6221 22.0778 17.7199 22.0778Z" fill="#9E9E9E"/>
<path fill-rule="evenodd" clip-rule="evenodd" d="M5.30976 14.1802C2.20719 14.1802 2.20719 14.4149 2.20719 17.2828V17.311C2.20719 18.5599 2.20719 19.4625 2.51294 19.8438C2.81191 20.2139 3.69981 20.3853 5.30976 20.3853C6.91971 20.3853 7.80761 20.2127 8.10658 19.8427C8.41232 19.4625 8.41232 18.5599 8.41232 17.3099C8.41232 14.4149 8.41232 14.1802 5.30976 14.1802ZM5.30976 22.0778C3.40761 22.0778 1.98043 21.8781 1.19633 20.9044C0.514893 20.0594 0.514893 18.9064 0.514893 17.3111L1.36105 17.2829H0.514893C0.514893 14.045 0.719098 12.488 5.30976 12.488C9.90043 12.488 10.1046 14.045 10.1046 17.2829C10.1046 18.9053 10.1046 20.0594 9.4232 20.9044C8.6391 21.8781 7.21192 22.0778 5.30976 22.0778Z" fill="#9E9E9E"/>
<path fill-rule="evenodd" clip-rule="evenodd" d="M17.7199 1.77004C14.6174 1.77004 14.6174 2.0047 14.6174 4.8726V4.90081C14.6174 6.14973 14.6174 7.05229 14.9231 7.43363C15.2221 7.80368 16.11 7.97517 17.7199 7.97517C19.3299 7.97517 20.2178 7.80255 20.5167 7.4325C20.8225 7.05229 20.8225 6.14973 20.8225 4.89968C20.8225 2.0047 20.8225 1.77004 17.7199 1.77004ZM17.7199 9.6675C15.8178 9.6675 14.3906 9.46781 13.6065 8.49417C12.925 7.64914 12.925 6.49612 12.925 4.90084L13.7712 4.87263H12.925C12.925 1.63468 13.1293 0.0777588 17.7199 0.0777588C22.3106 0.0777588 22.5148 1.63468 22.5148 4.87263C22.5148 6.49499 22.5148 7.64914 21.8334 8.49417C21.0493 9.46781 19.6221 9.6675 17.7199 9.6675Z" fill="#9E9E9E"/>
<path fill-rule="evenodd" clip-rule="evenodd" d="M5.30976 1.77004C2.20719 1.77004 2.20719 2.0047 2.20719 4.8726V4.90081C2.20719 6.14973 2.20719 7.05229 2.51294 7.43363C2.81191 7.80368 3.69981 7.97517 5.30976 7.97517C6.91971 7.97517 7.80761 7.80255 8.10658 7.4325C8.41232 7.05229 8.41232 6.14973 8.41232 4.89968C8.41232 2.0047 8.41232 1.77004 5.30976 1.77004ZM5.30976 9.6675C3.40761 9.6675 1.98043 9.46781 1.19633 8.49417C0.514893 7.64914 0.514893 6.49612 0.514893 4.90084L1.36105 4.87263H0.514893C0.514893 1.63468 0.719098 0.0777588 5.30976 0.0777588C9.90043 0.0777588 10.1046 1.63468 10.1046 4.87263C10.1046 6.49499 10.1046 7.64914 9.4232 8.49417C8.6391 9.46781 7.21192 9.6675 5.30976 9.6675Z" fill="#9E9E9E"/>
</svg>
