<svg width="25" height="25" viewBox="0 0 25 25" fill="none" xmlns="http://www.w3.org/2000/svg">
<path fill-rule="evenodd" clip-rule="evenodd" d="M1.64911 9.23884C0.889688 9.92232 0.456055 10.896 0.456055 11.9177V21.1246C0.456055 23.1151 2.06963 24.7286 4.06006 24.7286H20.8787C22.8692 24.7286 24.4827 23.1151 24.4827 21.1246V11.9177C24.4827 10.896 24.0491 9.92232 23.2897 9.23884L14.8804 1.67043C13.5098 0.43688 11.429 0.43688 10.0584 1.67045L1.64911 9.23884ZM11.2681 13.9166C9.94111 13.9166 8.8654 14.9923 8.8654 16.3193V21.1246C8.8654 21.7881 9.40326 22.3259 10.0667 22.3259H14.8721C15.5356 22.3259 16.0734 21.7881 16.0734 21.1246V16.3193C16.0734 14.9923 14.9977 13.9166 13.6707 13.9166H11.2681Z" fill="#141416"/>
</svg>
