<svg width="23" height="23" viewBox="0 0 23 23" fill="none" xmlns="http://www.w3.org/2000/svg">
<path fill-rule="evenodd" clip-rule="evenodd" d="M0 11.5C0 10.6716 0.393681 10 0.87931 10H16.1207C16.6063 10 17 10.6716 17 11.5C17 12.3284 16.6063 13 16.1207 13H0.87931C0.393681 13 0 12.3284 0 11.5Z" fill="#141718"/>
<path fill-rule="evenodd" clip-rule="evenodd" d="M15.7603 0.855372C15.7603 0.382963 16.1433 0 16.6157 0H21.824C22.3594 0 22.7934 0.434027 22.7934 0.969422V22.0306C22.7934 22.566 22.3594 23 21.824 23H15.8554C15.383 23 15 22.617 15 22.1446C15 21.6722 15.383 21.2893 15.8554 21.2893H21.0827V1.71074H16.6157C16.1433 1.71074 15.7603 1.32778 15.7603 0.855372Z" fill="#141718"/>
<path d="M11.0001 5.99982L16.9211 11.5466L11.0001 17.4676" stroke="black" stroke-width="2.36842" stroke-linecap="round" stroke-linejoin="round"/>
</svg>
