<svg width="34" height="34" viewBox="0 0 34 34" fill="none" xmlns="http://www.w3.org/2000/svg">
<path fill-rule="evenodd" clip-rule="evenodd" d="M29.4637 17.1301C29.4951 17.0381 29.4993 16.9396 29.4743 16.8456C28.8805 14.6199 17.8561 8.2933 14.3919 7.2296C13.4894 6.95239 12.8355 7.06402 12.4516 7.56039C11.3388 8.99707 13.6369 13.4645 14.978 15.8005L21.926 16.0445C22.3286 16.0586 22.6435 16.3973 22.6295 16.8011C22.6154 17.2049 22.2777 17.5207 21.8751 17.5066L14.8605 17.2596C13.3508 19.5261 10.8429 23.7127 11.8374 25.1998C11.8746 25.2556 11.9154 25.3081 11.9599 25.3558C12.3272 25.7509 12.9289 25.8547 13.7493 25.6648C17.2769 24.848 28.715 19.3115 29.4637 17.1301Z" fill="#DDDDE4"/>
</svg>
